<?xml version="1.0" standalone="no"?>
<!DOCTYPE svg PUBLIC "-//W3C//DTD SVG 20010904//EN"
 "http://www.w3.org/TR/2001/REC-SVG-20010904/DTD/svg10.dtd">
<svg version="1.0" xmlns="http://www.w3.org/2000/svg"
 width="3477.000000pt" height="3477.000000pt" viewBox="0 0 3477.000000 3477.000000"
 preserveAspectRatio="xMidYMid meet">
<metadata>
Created by potrace 1.14, written by Peter Selinger 2001-2017
</metadata>
<g transform="translate(0.000000,3477.000000) scale(0.100000,-0.100000)"
fill="#000000" stroke="none">
<path d="M13160 23840 c-30 -5 -82 -11 -115 -15 -33 -4 -71 -8 -85 -10 -14 -1
-56 -6 -95 -10 -38 -3 -153 -25 -255 -47 -102 -21 -194 -41 -205 -44 -11 -2
-36 -7 -55 -10 -19 -3 -136 -55 -259 -116 -216 -105 -230 -114 -410 -254
l-186 -145 -137 -192 c-140 -196 -166 -229 -177 -223 -5 4 -42 8 -201 22 -30
2 -73 6 -95 9 -22 2 -71 7 -110 10 -38 4 -81 8 -95 10 -14 2 -65 7 -115 10
-49 4 -103 9 -120 11 -40 5 -296 18 -615 31 -352 14 -1131 7 -1286 -12 -25 -3
-83 -7 -284 -20 -138 -9 -240 -16 -270 -20 -48 -5 -135 -14 -195 -20 -27 -3
-70 -7 -95 -10 -49 -5 -116 -12 -195 -20 -27 -2 -68 -6 -90 -9 -22 -3 -69 -8
-105 -11 -36 -3 -90 -10 -120 -15 -62 -10 -94 -15 -160 -25 -25 -3 -85 -12
-135 -20 -49 -8 -108 -17 -130 -20 -22 -4 -67 -10 -100 -15 -33 -5 -78 -12
-100 -15 -53 -8 -78 -13 -205 -36 -36 -6 -74 -13 -85 -14 -11 -2 -60 -11 -110
-20 -49 -10 -101 -19 -115 -21 -93 -15 -273 -49 -370 -70 -142 -31 -125 -27
-245 -57 -109 -27 -272 -66 -301 -71 -11 -2 -46 -11 -79 -19 -33 -8 -89 -20
-125 -26 -36 -6 -75 -13 -86 -15 -12 -2 -39 -7 -60 -11 -46 -7 -60 -9 -184
-30 -52 -9 -106 -18 -120 -21 -14 -2 -41 -7 -60 -10 -51 -8 -92 -19 -225 -59
-66 -20 -156 -47 -200 -60 -134 -38 -244 -74 -275 -90 -17 -9 -31 -15 -32 -14
-5 1 -244 -90 -313 -121 -22 -9 -58 -23 -80 -31 -44 -15 -82 -35 -300 -154
-82 -45 -172 -95 -200 -109 -27 -15 -57 -31 -65 -37 -8 -5 -53 -30 -100 -55
-94 -51 -142 -78 -275 -151 -49 -28 -112 -63 -140 -78 -27 -15 -66 -37 -85
-50 -78 -51 -151 -95 -156 -95 -3 0 -20 -10 -37 -23 -18 -12 -41 -27 -52 -34
-11 -6 -62 -38 -113 -70 -51 -32 -101 -62 -110 -68 -44 -25 -173 -102 -229
-137 -34 -21 -64 -38 -66 -38 -5 0 -333 -198 -437 -264 -41 -26 -84 -53 -94
-59 -107 -65 -245 -159 -263 -178 -12 -13 -29 -42 -39 -64 -9 -22 -27 -63 -40
-91 -18 -37 -26 -75 -29 -135 -2 -46 -6 -92 -8 -103 -2 -10 0 -40 4 -65 4 -25
10 -72 13 -104 4 -31 14 -76 22 -98 7 -23 14 -45 14 -50 0 -15 -62 -10 -115 9
-65 24 -195 23 -245 -1 -61 -30 -87 -60 -110 -127 -12 -36 -26 -69 -31 -74 -5
-6 -9 -78 -9 -160 l0 -151 126 -190 c177 -266 356 -501 518 -680 171 -189 202
-222 256 -273 30 -30 107 -104 170 -165 63 -62 158 -148 210 -191 52 -44 102
-87 111 -95 20 -19 41 -38 144 -121 44 -36 82 -67 85 -70 17 -20 372 -296 445
-348 50 -35 146 -104 215 -153 69 -50 136 -98 150 -107 55 -37 236 -168 249
-180 7 -7 45 -31 85 -53 39 -22 78 -44 86 -49 48 -29 194 -91 249 -105 182
-46 420 -146 511 -213 134 -99 199 -192 261 -373 10 -32 24 -43 93 -80 86 -46
237 -104 296 -114 20 -3 47 -8 60 -10 54 -11 137 -13 180 -4 119 24 113 24
217 -32 54 -28 125 -66 158 -84 56 -30 89 -48 240 -130 211 -115 248 -135 251
-135 2 0 63 -35 136 -78 73 -43 169 -98 213 -122 138 -75 321 -187 402 -246
43 -32 79 -58 81 -59 1 -1 -26 -44 -60 -95 -48 -73 -68 -115 -91 -194 -28 -92
-30 -114 -31 -256 -1 -136 9 -314 19 -330 2 -3 6 -30 9 -60 13 -107 35 -191
102 -385 20 -55 56 -160 81 -234 28 -83 61 -160 87 -200 23 -36 60 -94 83
-129 22 -34 91 -117 154 -183 165 -175 356 -320 634 -481 81 -47 357 -180 410
-197 33 -11 137 -46 230 -79 94 -33 208 -74 255 -90 47 -17 99 -33 115 -35 17
-3 39 -8 50 -11 11 -2 67 -16 125 -30 171 -41 354 -113 376 -147 3 -5 10 -7
15 -4 5 4 9 1 9 -4 0 -6 4 -11 9 -11 5 0 57 -27 116 -60 59 -33 109 -60 111
-60 2 0 41 -24 86 -54 77 -50 132 -80 359 -198 77 -40 104 -51 159 -63 89 -20
164 -34 205 -39 28 -3 67 -9 89 -12 36 -6 38 -5 31 17 -44 152 -122 275 -219
342 -60 42 -347 188 -476 242 -124 52 -235 108 -265 133 -84 70 -98 85 -100
111 l-2 28 64 -13 c35 -8 76 -16 91 -19 15 -3 37 -7 48 -9 12 -2 37 -7 55 -10
19 -3 66 -14 104 -26 39 -11 93 -27 120 -35 28 -7 88 -25 135 -39 113 -33 244
-70 360 -101 52 -15 120 -33 150 -41 30 -9 70 -17 88 -20 18 -2 122 -22 230
-44 108 -23 208 -43 222 -46 14 -3 41 -9 60 -14 38 -10 90 -18 159 -25 64 -6
152 -16 179 -20 77 -12 330 -20 493 -16 54 1 114 41 122 81 3 14 9 33 12 42 5
11 2 19 -6 22 -21 6 -78 22 -234 65 -77 22 -212 62 -300 89 -216 68 -506 151
-700 201 -136 35 -450 141 -550 186 -16 7 -66 28 -110 45 -121 48 -136 55
-330 150 -99 49 -220 113 -270 144 -49 30 -114 69 -143 87 -124 73 -270 196
-318 268 -22 33 -53 128 -62 189 -9 65 -8 240 1 279 3 13 7 65 8 115 4 147 8
176 27 172 168 -32 421 -96 572 -144 139 -44 342 -104 395 -117 11 -3 27 -7
35 -10 8 -3 20 -7 25 -8 10 -3 206 -60 320 -94 181 -54 452 -132 535 -154 189
-51 566 -146 620 -156 30 -6 66 -14 80 -16 14 -3 50 -10 80 -16 30 -5 69 -14
85 -19 17 -5 44 -11 60 -14 17 -2 55 -9 85 -16 69 -14 98 -17 185 -25 39 -3
84 -8 100 -10 28 -4 59 -7 195 -20 30 -3 71 -7 90 -10 19 -2 71 -7 115 -11 44
-3 94 -7 110 -9 17 -1 66 -6 110 -9 44 -4 100 -9 125 -12 54 -5 209 -11 495
-19 116 -3 257 -7 315 -10 167 -7 408 -15 635 -20 229 -6 385 -12 455 -19 52
-5 127 -12 255 -23 116 -9 244 -10 320 0 33 4 80 10 105 13 25 3 61 7 80 10
19 3 60 7 90 10 30 2 66 6 80 9 14 2 54 7 90 11 36 3 73 8 83 9 9 2 54 7 98
10 45 4 89 8 98 10 9 1 52 6 96 10 44 4 94 8 110 10 17 2 58 7 93 10 35 4 71
8 80 10 9 1 51 6 92 10 41 4 83 9 92 10 9 2 48 7 85 10 37 4 76 9 85 10 9 2
48 7 85 10 37 4 77 9 88 11 11 2 54 6 95 10 41 3 90 7 107 9 18 2 72 7 120 10
49 3 99 8 113 10 14 2 59 7 100 10 41 4 113 12 160 20 47 8 101 16 120 19 19
3 116 19 214 36 98 16 195 32 215 35 20 3 47 7 60 9 12 3 44 8 70 11 25 3 71
9 101 15 30 5 75 12 100 15 25 3 70 10 100 15 30 5 71 11 90 14 54 9 93 16
120 22 14 3 36 8 50 10 14 3 77 16 140 29 125 26 138 29 220 44 86 17 90 18
175 36 44 9 89 18 99 21 11 2 65 13 120 25 56 11 115 23 131 25 17 3 37 8 45
11 8 3 32 7 52 10 38 5 63 -6 283 -127 28 -15 91 -49 140 -75 50 -26 117 -62
150 -80 33 -18 96 -52 140 -75 44 -24 103 -55 130 -70 28 -15 181 -84 340
-153 160 -68 369 -159 465 -200 158 -69 557 -199 845 -277 17 -4 84 -24 150
-45 102 -31 275 -75 365 -92 14 -2 84 -17 155 -33 72 -16 141 -31 155 -33 14
-3 55 -12 91 -21 37 -8 78 -17 90 -20 77 -14 221 -46 227 -50 7 -4 104 -18
212 -31 61 -7 130 -16 160 -20 14 -2 50 -6 80 -10 30 -4 66 -8 80 -10 14 -2
50 -7 80 -10 30 -3 66 -8 80 -10 14 -2 50 -6 80 -10 30 -4 66 -8 80 -10 14 -2
57 -7 95 -11 39 -3 73 -8 77 -11 5 -2 65 -6 135 -8 71 -3 196 -7 278 -10 83
-3 238 -8 345 -11 235 -9 433 -8 595 0 66 3 167 8 225 11 58 2 148 7 200 9 52
3 149 8 215 11 109 5 162 9 250 21 17 2 53 6 80 9 86 10 219 26 245 30 14 2
54 7 90 10 36 3 72 8 80 10 8 2 44 6 80 10 36 3 76 8 90 10 14 2 50 7 80 10
131 15 189 26 257 49 40 14 94 28 120 32 27 3 57 9 68 12 11 2 128 6 260 8
304 4 378 9 495 35 77 18 109 31 175 74 44 29 108 82 142 119 l62 66 -32 1
c-18 0 -84 3 -147 6 -130 7 -858 8 -1145 2 -104 -2 -226 0 -270 4 -44 4 -102
10 -130 13 -71 6 -146 15 -175 19 -14 2 -79 11 -145 20 -66 9 -138 21 -160 27
-22 5 -48 12 -57 14 -189 43 -293 80 -553 200 -16 7 -107 45 -201 82 -94 38
-196 85 -225 104 -30 20 -100 65 -157 102 -119 76 -294 238 -472 436 -47 52
-89 100 -95 106 -5 6 -32 37 -60 69 -27 33 -59 68 -70 80 -11 11 -67 74 -125
140 -58 66 -114 129 -125 141 -11 12 -47 52 -80 89 -74 84 -56 66 -212 213
-98 92 -167 146 -272 214 l-142 90 68 40 c66 39 102 56 133 63 58 14 159 48
234 80 49 20 101 39 115 42 14 2 62 11 106 18 89 16 119 21 185 36 68 16 467
86 530 94 30 4 58 9 61 10 3 2 27 7 53 10 26 4 73 18 106 31 94 38 203 26 340
-38 36 -17 88 -38 115 -48 28 -10 76 -30 107 -44 55 -24 82 -30 198 -42 86 -9
106 -13 155 -35 35 -15 507 -196 583 -223 39 -14 102 -37 140 -50 253 -92 334
-120 420 -145 96 -29 184 -57 345 -107 45 -14 98 -30 117 -36 19 -5 98 -29
175 -53 77 -23 181 -55 230 -70 50 -14 101 -30 115 -35 20 -7 257 -70 320 -85
8 -2 106 -26 218 -55 112 -28 211 -53 220 -55 9 -2 44 -10 77 -18 33 -9 71
-18 85 -21 14 -2 66 -14 115 -26 50 -12 97 -23 105 -25 8 -2 80 -20 160 -39
80 -20 152 -38 161 -41 9 -2 83 -20 165 -40 82 -20 156 -38 164 -40 30 -7 239
-57 360 -87 105 -26 148 -31 270 -34 138 -2 168 -4 285 -18 28 -3 73 -8 100
-11 28 -3 86 -11 130 -18 74 -11 346 -16 440 -8 40 4 200 55 219 70 6 5 37 23
70 41 53 29 64 31 125 27 36 -3 93 -14 126 -25 33 -11 80 -23 105 -27 65 -10
74 -12 114 -23 20 -6 36 -8 36 -6 0 3 8 0 18 -5 56 -30 371 -41 482 -17 14 3
37 8 53 12 15 3 27 9 27 12 -1 8 -77 60 -130 89 -19 11 -80 37 -135 57 -192
73 -225 86 -317 129 -101 47 -159 72 -198 83 -22 7 -20 9 24 19 82 18 369 9
611 -20 28 -3 66 -8 85 -11 19 -3 72 -7 118 -9 74 -4 83 -2 81 13 -3 31 1 39
25 50 13 6 25 21 28 34 4 23 -2 26 -126 62 -72 21 -180 52 -241 69 -60 16
-191 56 -290 89 -171 56 -330 102 -385 112 -14 2 -43 9 -65 14 -22 6 -60 14
-85 17 -84 12 -62 16 95 17 51 1 319 -13 325 -17 3 -1 39 -6 80 -9 101 -9 155
-15 215 -26 45 -8 90 -14 285 -36 30 -3 57 -7 60 -9 3 -1 32 -6 65 -10 33 -3
103 -15 155 -25 l95 -20 28 33 c16 17 33 42 38 55 7 18 14 21 36 16 24 -6 22
-3 -18 32 -24 21 -59 54 -79 73 -98 94 -346 228 -489 262 -47 11 -140 36 -206
54 -66 18 -133 36 -150 38 -29 5 -64 13 -270 62 -98 23 -127 29 -212 41 -24 4
-43 10 -43 14 0 8 109 34 185 45 22 3 78 12 125 21 47 9 119 18 160 19 41 2
100 9 130 15 30 7 78 14 105 16 77 5 146 14 195 24 25 5 79 9 121 10 63 0 90
6 165 36 49 20 97 38 108 40 10 2 53 12 95 23 42 11 98 22 125 26 27 3 52 8
56 10 3 2 26 6 50 10 191 28 312 58 476 116 44 16 85 29 90 29 21 0 183 116
245 176 l66 63 -56 -5 c-123 -11 -187 -22 -294 -50 -34 -9 -66 -17 -72 -18
-24 -6 -106 -29 -175 -51 -41 -12 -115 -31 -165 -40 -86 -16 -326 -83 -520
-146 -55 -18 -91 -25 -93 -19 -2 6 -21 33 -43 59 -42 54 -108 102 -209 150
-36 18 -80 44 -98 59 l-34 28 19 32 18 32 185 0 c195 0 276 11 362 49 71 30
136 82 147 116 23 75 24 74 -37 101 -30 13 -81 26 -111 29 -31 2 -94 7 -141
10 -47 4 -182 8 -300 10 -200 2 -348 11 -360 22 -3 3 3 11 13 18 12 9 41 12
91 9 69 -4 75 -2 102 24 72 66 139 122 149 122 5 0 44 13 85 29 116 44 221 70
328 82 53 5 111 12 127 14 31 3 181 23 225 30 14 2 54 7 90 10 104 10 207 42
350 108 l85 39 -40 15 c-22 8 -62 24 -90 34 -50 19 -222 68 -260 74 -11 1 -74
13 -140 25 -66 13 -129 24 -140 26 -11 1 -45 7 -75 13 -30 6 -68 13 -85 15
-16 3 -41 8 -55 11 -55 12 -322 27 -507 29 -78 1 -144 4 -147 6 -10 10 113 92
209 140 55 27 128 69 162 94 33 25 103 66 155 92 51 26 121 67 156 91 34 25
98 62 142 83 43 22 116 61 162 88 46 28 119 64 163 81 63 24 91 42 130 82 28
28 86 76 130 106 44 31 103 77 132 103 28 26 77 64 110 85 103 67 236 223 266
310 21 63 49 186 44 191 -2 3 -57 -25 -122 -61 -64 -36 -174 -96 -244 -132
-69 -37 -143 -77 -165 -91 -128 -79 -499 -272 -524 -272 -6 0 -23 -7 -39 -15
-63 -32 -169 -75 -623 -253 -85 -34 -168 -67 -185 -73 -37 -15 -39 -15 -95
-24 -25 -3 -62 -11 -82 -16 -112 -29 -185 -16 -158 28 7 11 38 34 69 50 47 25
62 29 91 22 33 -8 38 -5 87 45 28 30 73 69 98 87 26 19 55 50 65 70 10 19 26
41 34 48 12 10 16 31 16 77 l0 64 -82 -31 c-46 -17 -90 -32 -98 -34 -8 -2 -40
-13 -70 -24 -30 -11 -121 -42 -201 -70 -81 -28 -187 -69 -235 -92 -49 -22 -96
-42 -104 -44 -31 -7 -238 -67 -312 -90 -82 -26 -83 -26 -223 -51 -49 -8 -114
-22 -144 -30 -30 -7 -56 -12 -58 -10 -2 2 22 24 54 48 54 41 157 98 443 245
58 30 137 80 175 112 39 31 96 74 128 96 62 42 136 141 191 255 23 47 40 64
114 116 48 33 112 71 142 83 30 13 69 29 85 37 17 7 129 48 250 90 159 55 264
99 380 158 187 96 337 187 381 230 17 17 50 48 74 69 23 20 39 37 36 37 -3 0
-77 -20 -163 -44 -87 -24 -180 -47 -208 -50 -27 -3 -77 -9 -110 -13 -107 -14
-664 -5 -791 12 -17 2 -60 7 -95 10 -35 4 -77 9 -94 11 -78 12 -421 -3 -520
-22 -11 -3 -38 -6 -60 -9 -89 -11 -122 -18 -160 -35 -22 -9 -74 -30 -115 -46
-41 -16 -86 -34 -99 -41 -21 -10 -29 -9 -52 8 -16 11 -30 23 -33 27 -10 16 72
89 124 111 118 51 145 58 235 66 76 6 286 49 429 87 l90 24 35 71 c31 63 42
75 110 120 118 79 165 98 321 133 175 39 161 36 235 44 49 6 136 22 275 51 66
14 151 40 184 57 23 12 70 27 106 34 90 17 171 69 215 137 17 26 17 27 -1 28
-11 0 -26 2 -34 4 -17 3 -143 17 -180 19 -14 1 -50 -1 -80 -6 -71 -9 -132 -16
-195 -22 -27 -3 -79 -8 -115 -11 -36 -4 -141 -21 -235 -40 -93 -19 -192 -36
-220 -40 -27 -3 -57 -8 -65 -10 -8 -2 -32 -6 -54 -10 -21 -3 -42 -7 -46 -10
-3 -2 -22 -7 -41 -10 -19 -3 -52 -10 -74 -15 -22 -4 -62 -11 -90 -15 -27 -3
-61 -8 -75 -10 -14 -2 -54 -9 -90 -15 -36 -5 -76 -12 -90 -14 -14 -3 -43 -7
-65 -11 l-40 -6 50 32 c47 30 178 95 270 134 22 9 74 25 115 36 64 16 167 53
285 100 17 7 32 13 35 14 6 2 9 3 128 47 80 30 119 54 70 44 -12 -3 -72 -8
-133 -10 -60 -3 -119 -7 -131 -10 -12 -2 -45 -7 -74 -11 -29 -4 -61 -8 -70
-10 -15 -3 -74 -11 -155 -21 -16 -2 -46 -6 -65 -8 -19 -3 -53 -8 -75 -11 -23
-3 -52 -7 -65 -10 -13 -3 -42 -7 -63 -10 -33 -5 -94 -16 -222 -40 -90 -16
-243 -45 -260 -49 -45 -10 -373 -75 -405 -81 -19 -3 -66 -12 -105 -20 -96 -20
-102 -19 -63 12 18 15 35 31 38 34 5 7 159 113 312 215 53 35 106 76 117 89
10 14 40 49 65 78 80 91 87 101 122 159 32 53 79 189 65 188 -3 -1 -33 -17
-66 -36 -115 -67 -359 -175 -373 -165 -1 1 -15 -5 -30 -12 -43 -22 -220 -65
-297 -73 -38 -3 -77 -8 -85 -9 -8 -2 -49 -6 -90 -10 -41 -4 -83 -9 -92 -10 -9
-2 -68 -7 -130 -10 -62 -4 -115 -9 -118 -10 -3 -2 -25 -6 -50 -10 -25 -4 -48
-8 -51 -11 -4 -2 -24 -6 -45 -10 -22 -3 -50 -7 -64 -9 -14 -3 -59 -9 -100 -16
-289 -43 -354 -54 -392 -65 -9 -3 -25 -6 -35 -8 -194 -38 -664 -178 -803 -239
-296 -130 -403 -175 -563 -236 -130 -50 -322 -139 -620 -287 -238 -118 -459
-229 -492 -247 -231 -127 -282 -153 -440 -227 -55 -25 -142 -67 -192 -93 -51
-26 -94 -46 -95 -45 -2 2 -17 -7 -35 -20 -17 -12 -34 -22 -37 -22 -5 0 -56
-22 -161 -71 -27 -13 -52 -24 -55 -24 -3 -1 -31 -13 -64 -28 -32 -15 -60 -27
-62 -27 -2 0 -50 -20 -107 -44 -165 -70 -378 -113 -602 -121 -66 -3 -136 -1
-155 4 -19 5 -53 12 -75 15 -94 12 -148 27 -198 55 -28 15 -85 45 -126 66
l-74 37 169 74 c183 80 203 91 279 139 28 18 102 65 165 105 97 62 254 186
399 315 18 16 97 94 175 171 121 120 173 178 286 318 8 10 20 23 25 30 6 6 37
45 70 86 33 41 76 93 97 115 52 57 235 268 358 415 173 207 418 441 530 507
45 26 98 58 118 71 20 12 53 31 72 41 40 21 320 115 395 131 72 17 72 16 167
39 103 25 140 29 533 47 189 10 963 10 1195 2 120 -5 208 -14 280 -29 126 -27
337 -34 385 -13 17 8 50 18 74 24 l43 11 -33 26 c-41 30 -63 39 -154 64 -136
38 -241 101 -265 158 -12 31 -41 44 -161 70 -26 6 -58 15 -73 21 -15 5 -37 12
-50 14 -13 2 -68 16 -122 31 -55 15 -106 28 -114 30 -8 2 -51 13 -95 24 -44
12 -123 31 -175 42 -114 24 -427 89 -454 95 -11 2 -74 15 -140 29 -326 70
-393 84 -421 90 -42 8 -61 12 -191 40 -63 14 -131 28 -152 30 -20 3 -47 8 -59
10 -12 3 -93 18 -180 35 -87 16 -205 38 -263 49 -58 10 -123 22 -145 25 -38 6
-50 8 -115 20 -14 3 -43 8 -65 11 -22 3 -116 19 -210 35 -93 16 -188 32 -210
35 -22 3 -51 8 -65 10 -14 3 -50 7 -80 10 -30 3 -62 8 -70 10 -8 2 -44 7 -80
10 -36 4 -72 9 -81 10 -9 2 -38 6 -65 9 -27 4 -65 9 -84 11 -19 3 -59 7 -88
10 -29 4 -62 8 -73 10 -11 2 -55 7 -97 10 -42 4 -88 8 -102 10 -14 2 -70 7
-125 11 -55 3 -107 8 -116 9 -9 2 -56 6 -105 10 -49 3 -100 8 -114 10 -30 6
-195 13 -485 20 -265 8 -363 12 -395 20 -22 5 -94 17 -185 30 -70 11 -103 16
-155 25 -65 11 -101 17 -155 25 -23 3 -50 7 -62 9 -23 5 -73 13 -130 22 -80
12 -128 19 -213 34 -30 5 -73 12 -95 15 -22 2 -51 7 -65 10 -27 5 -93 16 -126
20 -11 2 -45 8 -75 14 -30 6 -67 13 -84 16 -65 11 -92 16 -140 25 -67 14 -94
19 -135 26 -19 4 -44 8 -55 10 -11 2 -36 7 -55 10 -19 3 -67 12 -107 20 -39 8
-88 17 -109 20 -20 3 -46 8 -58 10 -11 2 -46 8 -76 14 -30 6 -66 12 -80 15
-14 3 -61 12 -105 20 -130 23 -184 34 -300 60 -60 13 -125 27 -144 30 -19 3
-37 7 -40 9 -3 2 -24 7 -46 10 -22 4 -56 11 -75 16 -38 10 -151 34 -240 52
-59 11 -63 12 -100 21 -27 7 -253 57 -285 63 -11 2 -31 6 -45 9 -14 3 -34 7
-45 10 -11 2 -74 15 -140 30 -66 14 -142 30 -170 35 -27 6 -59 12 -70 14 -11
3 -74 17 -140 31 -113 25 -187 40 -245 51 -14 3 -41 9 -60 14 -19 5 -51 12
-70 15 -19 3 -109 22 -200 41 -91 20 -176 38 -190 40 -14 3 -52 11 -85 19 -33
8 -94 21 -135 30 -75 15 -225 47 -310 66 -25 6 -65 14 -90 19 -25 5 -54 11
-65 13 -120 27 -305 67 -325 71 -25 5 -202 44 -230 50 -8 2 -49 11 -90 20 -77
16 -220 48 -325 71 -72 16 -251 55 -274 60 -9 2 -56 12 -106 24 -49 11 -101
22 -115 25 -22 4 -94 20 -140 31 -13 4 -528 107 -590 119 -14 3 -50 10 -80 16
-30 6 -71 13 -90 16 -19 3 -43 7 -52 10 -10 3 -30 7 -45 10 -16 3 -71 13 -123
24 -52 11 -106 21 -120 24 -14 2 -72 14 -130 26 -58 11 -120 23 -139 26 -18 3
-43 8 -55 10 -11 2 -73 13 -136 24 -63 11 -126 22 -140 25 -68 12 -320 55
-355 60 -22 4 -48 8 -57 11 -10 3 -30 7 -45 10 -16 3 -53 9 -83 14 -30 5 -68
12 -85 14 -55 9 -210 36 -235 41 -14 3 -39 7 -55 9 -17 3 -80 12 -140 21 -61
10 -120 19 -132 20 -25 3 -96 15 -128 21 -11 2 -47 6 -80 9 -33 3 -76 8 -95
10 -19 2 -73 7 -120 11 -47 3 -94 9 -105 12 -34 9 -746 10 -805 2z"/>
</g>
</svg>
